<svg xmlns="http://www.w3.org/2000/svg" viewBox="0 0 23.67 18.01"><defs><style>.cls-1{fill:#ccc;}</style></defs><title>correo</title><g id="Capa_2" data-name="Capa 2"><g id="Capa_2-2" data-name="Capa 2"><g id="_Grupo_" data-name="&lt;Grupo&gt;"><g id="_Grupo_2" data-name="&lt;Grupo&gt;"><g id="_Grupo_3" data-name="&lt;Grupo&gt;"><path id="_Trazado_compuesto_" data-name="&lt;Trazado compuesto&gt;" class="cls-1" d="M20.78,0H2.89A2.9,2.9,0,0,0,0,2.89V15.12A2.9,2.9,0,0,0,2.89,18H20.77a2.9,2.9,0,0,0,2.89-2.89V2.9A2.89,2.89,0,0,0,20.78,0Zm1.57,15.12a1.57,1.57,0,0,1-1.57,1.57H2.89a1.57,1.57,0,0,1-1.57-1.57V2.9A1.57,1.57,0,0,1,2.89,1.33H20.77A1.57,1.57,0,0,1,22.35,2.9V15.12Z"/><path id="_Trazado_" data-name="&lt;Trazado&gt;" class="cls-1" d="M14.93,8.85l5.79-5.19a.66.66,0,1,0-.89-1l-8,7.16L10.29,8.45h0l-.11-.09L3.83,2.67a.66.66,0,0,0-.88,1L8.81,8.9,3,14.36a.66.66,0,0,0,0,.94.68.68,0,0,0,.48.21.66.66,0,0,0,.45-.18L9.8,9.79l1.61,1.43a.66.66,0,0,0,.88,0l1.65-1.48,5.89,5.59a.66.66,0,0,0,.94,0,.66.66,0,0,0,0-.94Z"/></g></g></g></g></g></svg>