<svg xmlns="http://www.w3.org/2000/svg" viewBox="0 0 26.21 26.21"><defs><style>.cls-1{fill:#ccc;}</style></defs><title>rss</title><g id="Capa_2" data-name="Capa 2"><g id="Capa_2-2" data-name="Capa 2"><g id="_Grupo_" data-name="&lt;Grupo&gt;"><g id="_Grupo_2" data-name="&lt;Grupo&gt;"><path id="_Trazado_" data-name="&lt;Trazado&gt;" class="cls-1" d="M18.36,21.61h3.26a17,17,0,0,0-17-17V7.84A13.79,13.79,0,0,1,18.36,21.61Z"/><path id="_Trazado_2" data-name="&lt;Trazado&gt;" class="cls-1" d="M12.56,21.61h3.26A11.25,11.25,0,0,0,4.59,10.38v3.25a8,8,0,0,1,8,8Z"/><path id="_Trazado_3" data-name="&lt;Trazado&gt;" class="cls-1" d="M6.85,21.59a2.26,2.26,0,1,0-1.6-.66A2.26,2.26,0,0,0,6.85,21.59Z"/><path id="_Trazado_compuesto_" data-name="&lt;Trazado compuesto&gt;" class="cls-1" d="M0,0V26.21H26.21V0ZM24.59,24.59h-23v-23h23Z"/></g></g></g></g></svg>