<svg xmlns="http://www.w3.org/2000/svg" viewBox="0 0 26.58 26.11"><defs><style>.cls-1{fill:#ccc;}</style></defs><title>twitter</title><g id="Capa_2" data-name="Capa 2"><g id="Capa_2-2" data-name="Capa 2"><g id="_Grupo_" data-name="&lt;Grupo&gt;"><g id="_Grupo_2" data-name="&lt;Grupo&gt;"><path id="_Trazado_" data-name="&lt;Trazado&gt;" class="cls-1" d="M4.66,18.38a10.15,10.15,0,0,0,5.43,1.56A9.91,9.91,0,0,0,20.16,10q0-.23,0-.45a7.12,7.12,0,0,0,1.77-1.8,7.18,7.18,0,0,1-2,.55,3.5,3.5,0,0,0,1.56-1.92,7.17,7.17,0,0,1-2.25.84,3.57,3.57,0,0,0-2.58-1.1,3.51,3.51,0,0,0-3.54,3.48,3.43,3.43,0,0,0,.09.79A10.11,10.11,0,0,1,5.86,6.8a3.42,3.42,0,0,0-.48,1.75A3.46,3.46,0,0,0,7,11.45,3.58,3.58,0,0,1,5.35,11v0a3.5,3.5,0,0,0,2.84,3.41,3.61,3.61,0,0,1-1.6.06A3.54,3.54,0,0,0,9.9,16.94a7.19,7.19,0,0,1-4.4,1.49A7.27,7.27,0,0,1,4.66,18.38Z"/><path id="_Trazado_compuesto_" data-name="&lt;Trazado compuesto&gt;" class="cls-1" d="M0,0V26.11H26.58V0ZM24.93,24.49H1.64V1.61H24.93Z"/></g></g></g></g></svg>