<svg xmlns="http://www.w3.org/2000/svg" viewBox="0 0 26.21 26.21"><defs><style>.cls-1{fill:#ccc;}</style></defs><title>youtube</title><g id="Capa_2" data-name="Capa 2"><g id="Capa_2-2" data-name="Capa 2"><g id="_Grupo_" data-name="&lt;Grupo&gt;"><g id="_Grupo_2" data-name="&lt;Grupo&gt;"><path id="_Trazado_compuesto_" data-name="&lt;Trazado compuesto&gt;" class="cls-1" d="M6.73,18.81a57.21,57.21,0,0,0,6.38.24,57.2,57.2,0,0,0,6.38-.24,2.15,2.15,0,0,0,1.84-1.67,18.22,18.22,0,0,0,.3-4,18.2,18.2,0,0,0-.29-4,2.15,2.15,0,0,0-1.84-1.67,57.22,57.22,0,0,0-6.38-.24,57.25,57.25,0,0,0-6.38.24A2.15,2.15,0,0,0,4.89,9.08a18.22,18.22,0,0,0-.3,4,18.21,18.21,0,0,0,.3,4A2.15,2.15,0,0,0,6.73,18.81Zm4.18-8.69,5.41,2.82-5.41,2.81V10.12Z"/><path id="_Trazado_compuesto_2" data-name="&lt;Trazado compuesto&gt;" class="cls-1" d="M0,0V26.21H26.21V0ZM24.59,24.59h-23v-23h23Z"/></g></g></g></g></svg>